<svg width="611" height="374" viewBox="0 0 611 374" fill="none" xmlns="http://www.w3.org/2000/svg">
<path d="M35.6304 373.07C35.652 373.095 579.822 372.996 579.822 372.996C579.822 372.996 594.36 343.62 599.755 275.975C611.628 126.938 519.828 103.952 493.113 97.7348C411.302 78.7119 448.524 -15.4857 235.393 2.19956C215.85 3.80957 169.81 16.8878 153.928 25.3589C142.792 31.3035 100.846 57.8562 88.5394 102.788C84.6611 116.98 83.7295 132.981 87.6294 150.766C101.517 213.655 65.3348 210.039 38.9236 240.01C3.65097 280.012 7.33423 345.403 35.6304 373.07Z" fill="#EBF3FA"/>
<path d="M246.813 170.705L200.197 226.03L126.37 163.944L95.2681 137.767L141.884 82.4424L199.95 131.304L246.813 170.705Z" fill="#DCEAFF"/>
<path d="M235.587 171.844L199.405 214.811L105.107 135.464L141.289 92.497L235.587 171.844ZM202.527 208.422L229.813 176.029C231.671 173.825 231.374 170.556 229.193 168.699L145.552 98.3415C143.322 96.4594 139.976 96.7566 138.092 98.9854L110.906 131.254C109.047 133.483 109.32 136.777 111.55 138.659L195.241 209.066C197.422 210.898 200.693 210.601 202.527 208.422Z" fill="#C0D8FB"/>
<path d="M181.929 163.393C187.306 157.01 186.486 147.48 180.098 142.107C173.711 136.734 164.173 137.553 158.797 143.936C153.42 150.319 154.239 159.85 160.627 165.223C167.015 170.596 176.552 169.777 181.929 163.393Z" fill="#C0D8FB"/>
<path d="M290.331 131.428L232.563 164.192L188.847 87.2221L170.433 54.7801L228.201 22.0161L262.599 82.5663L290.331 131.428Z" fill="#DCEAFF"/>
<path d="M280.319 128.827L235.463 154.261L179.627 55.9192L224.484 30.4857L280.319 128.827ZM240.196 149.778L274.024 130.61C276.329 129.298 277.122 126.4 275.833 124.097L226.293 36.875C224.955 34.5471 222.006 33.7299 219.651 35.0424L185.972 54.1362C183.642 55.4487 182.849 58.3957 184.163 60.6989L233.728 147.971C235.016 150.274 237.916 151.066 240.196 149.778Z" fill="#C0D8FB"/>
<path d="M236.795 104.444C243.461 100.664 245.798 92.1999 242.016 85.5386C238.233 78.8773 229.763 76.5414 223.097 80.3213C216.431 84.1012 214.093 92.5654 217.876 99.2267C221.658 105.888 230.129 108.224 236.795 104.444Z" fill="#C0D8FB"/>
<path d="M563.931 215.455C558.107 190.814 516.621 197.129 516.621 197.129C516.621 197.129 487.229 238.957 479.05 239.725C470.872 240.467 497.191 199.061 497.191 199.061C481.454 197.03 440.613 215.059 440.613 215.059C440.613 215.059 441.554 265.01 433.426 263.722C425.322 262.434 434.863 219.467 434.863 219.467C419.448 223.553 404.604 240.889 404.604 240.889C385.843 269.319 423.339 291.904 423.339 291.904C423.339 291.904 423.29 309.215 411.964 328.705C411.964 328.705 409.436 332.296 406.785 338.438L410.948 338.561C411.32 337.447 411.741 336.382 412.187 335.367V335.342C412.187 335.317 412.212 335.317 412.212 335.292C412.509 334.649 412.955 333.757 413.501 332.667C414.864 330.216 415.781 328.408 416.351 327.095C420.415 319.418 426.239 309.413 429.956 307.382C429.956 307.382 429.51 306.714 429.138 305.451C429.411 306.07 429.684 306.714 429.956 307.382C436.598 322.885 472.136 326.575 492.136 323.133C512.11 319.715 503.659 313.821 493.251 304.411C482.842 295 460.364 296.659 453.871 292.87C447.378 289.106 457.167 285.837 470.352 287.298C483.536 288.759 489.756 302.182 511.069 304.906C532.382 307.63 549.978 267.957 549.978 267.957C535.059 272.068 508.864 263.053 507.996 257.952C507.154 252.825 546.335 254.608 552.481 253.271C558.652 251.958 569.754 240.096 563.931 215.455Z" fill="#DFEBFD"/>
<path opacity="0.5" d="M369.809 160.452C379.003 147.624 401.431 161.071 401.431 161.071C401.431 161.071 408.47 192.151 413.005 194.504C417.54 196.881 412.187 166.767 412.187 166.767C421.753 169.318 441.009 189.377 441.009 189.377C441.009 189.377 428.643 217.956 433.624 219.145C438.605 220.334 443.289 193.29 443.289 193.29C451.219 199.283 455.656 212.805 455.656 212.805C459.745 233.632 432.757 237.793 432.757 237.793C432.757 237.793 428.692 247.798 430.6 261.716C430.6 261.716 431.22 264.39 431.294 268.551L428.866 267.635C428.915 266.916 428.915 266.198 428.915 265.505C428.915 265.505 428.915 265.505 428.915 265.48V265.455C428.89 265.01 428.841 264.39 428.791 263.623C428.593 261.889 428.494 260.626 428.469 259.735C427.949 254.336 426.957 247.204 425.297 245.148C425.297 245.148 425.718 244.876 426.239 244.232C425.941 244.529 425.619 244.826 425.297 245.148C417.813 252.503 396.425 246.238 385.719 239.526C375.013 232.815 381.283 231.428 389.511 228.457C397.739 225.485 410.304 231.75 414.938 231.131C419.572 230.487 414.715 226.302 406.76 224.024C398.804 221.745 392.039 228.011 379.102 224.544C366.166 221.077 365.422 194.033 365.422 194.033C373.055 199.927 390.304 200.943 391.989 198.194C393.699 195.445 370.676 187.198 367.455 184.969C364.208 182.74 360.615 173.28 369.809 160.452Z" fill="#AFCDFB"/>
<path d="M312.048 163.201C298.12 147.426 270.165 168.278 270.165 168.278C270.165 168.278 265.011 210.452 259.311 214.192C253.611 217.956 256.659 177.292 256.659 177.292C244.317 181.948 221.443 211.171 221.443 211.171C221.443 211.171 241.69 247.426 235.247 249.655C228.803 251.884 218.94 216.644 218.94 216.644C209.225 225.683 205.161 244.207 205.161 244.207C202.559 272.389 238.89 274.272 238.89 274.272C238.89 274.272 245.631 286.976 244.962 305.723C244.962 305.723 244.515 309.339 244.986 314.886L248.084 313.351C247.935 312.385 247.812 311.444 247.737 310.527C247.737 310.527 247.737 310.527 247.737 310.503C247.737 310.478 247.737 310.478 247.737 310.453C247.712 309.859 247.688 309.042 247.663 308.026C247.688 305.698 247.663 304.014 247.564 302.826C247.539 295.594 247.886 285.985 249.819 283.038C249.819 283.038 249.249 282.716 248.456 281.949C248.902 282.295 249.348 282.667 249.819 283.038C260.748 291.805 288.281 280.587 301.59 270.26C314.898 259.933 306.373 258.942 295.072 256.094C283.746 253.246 267.935 263.276 261.69 263.053C255.445 262.83 261.343 256.614 271.603 252.503C281.838 248.392 291.652 255.822 308.355 249.482C325.059 243.142 322.407 207.159 322.407 207.159C313.089 216 290.338 219.665 287.711 216.247C285.084 212.83 314.501 198.788 318.491 195.395C322.506 192.027 325.976 178.976 312.048 163.201Z" fill="#DFEBFD"/>
<path d="M126.296 223.479C126.296 223.479 131.599 232.468 136.482 232.592C141.339 232.716 148.749 228.432 148.749 228.432C148.749 228.432 153.21 216.446 150.186 211.765C150.186 211.765 147.138 210.155 143.966 213.003C143.421 213.499 142.875 214.118 142.33 214.91C141.562 216.025 140.695 216.668 139.778 216.99C136.308 218.253 132.169 215.282 130.633 218.154C129.741 219.838 128.749 221.101 127.956 221.968C126.99 222.983 126.296 223.479 126.296 223.479Z" fill="#F9DDBF"/>
<path d="M202.478 354.931C202.478 354.931 215.513 240.616 142.975 232.592C142.975 232.592 86.6935 245.99 100.72 354.931H202.478Z" fill="#F9DDBF"/>
<path d="M152.243 234.276C152.243 234.276 138.712 237.892 134.524 235.762C134.524 235.762 133.904 228.952 139.604 229.918C143.495 230.562 146.048 228.308 147.534 227.392C149.641 226.104 152.788 231.428 152.243 234.276Z" fill="#F99746"/>
<path d="M140.447 223.999C141.314 224.791 143.966 212.979 143.966 212.979C143.421 213.474 142.876 214.093 142.331 214.885C141.562 216 140.695 216.644 139.778 216.966C139.778 217.312 139.604 223.256 140.447 223.999Z" fill="#E5C1A1"/>
<path d="M127.957 221.968C128.155 222.092 134.4 226.624 135.267 226.624C136.135 226.624 130.658 218.154 130.658 218.154C129.741 219.814 128.75 221.077 127.957 221.968Z" fill="#E5C1A1"/>
<path d="M227.556 91.1423C235.449 88.4644 239.674 79.8997 236.995 72.0125C234.315 64.1253 225.744 59.9024 217.851 62.5803C209.958 65.2582 205.732 73.823 208.412 81.7101C211.092 89.5973 219.663 93.8202 227.556 91.1423Z" fill="#E2810E"/>
<path d="M226.316 91.561C234.208 88.8831 238.434 80.3184 235.754 72.4312C233.075 64.544 224.504 60.3211 216.611 62.999C208.718 65.6769 204.492 74.2417 207.172 82.1288C209.852 90.016 218.423 94.2389 226.316 91.561Z" fill="#FFB93E"/>
<path d="M225.953 90.4911C222.483 91.6798 218.741 91.4321 215.445 89.7977C212.149 88.1632 209.671 85.3647 208.506 81.8729C207.316 78.4058 207.564 74.6663 209.2 71.3725C210.836 68.0788 213.636 65.6023 217.13 64.4384C220.6 63.2496 224.342 63.4973 227.638 65.1318C230.934 66.7663 233.413 69.5647 234.577 73.0566C235.767 76.5237 235.519 80.2632 233.883 83.5569C232.248 86.8259 229.423 89.3024 225.953 90.4911ZM217.353 65.2061C210.588 67.5092 206.97 74.8644 209.25 81.6005C211.554 88.3613 218.915 91.977 225.656 89.6986C232.421 87.3955 236.04 80.0403 233.76 73.3042C231.48 66.5681 224.119 62.9277 217.353 65.2061Z" fill="#FFA412"/>
<path d="M224.59 80.6346C224.516 80.3374 224.442 80.0898 224.293 79.8917C224.169 79.6935 223.996 79.5202 223.748 79.3716C223.525 79.223 223.252 79.124 222.905 79.0249C222.583 78.9258 222.186 78.8515 221.716 78.802C220.923 78.703 220.204 78.5791 219.535 78.4058C218.866 78.2572 218.296 78.0343 217.775 77.7619C217.28 77.4895 216.858 77.118 216.511 76.6722C216.164 76.2265 215.916 75.6569 215.793 74.9882C215.669 74.3938 215.669 73.8243 215.768 73.3042C215.867 72.7841 216.09 72.2888 216.387 71.8431C216.71 71.3973 217.106 71.0011 217.602 70.6543C218.097 70.3076 218.667 70.0352 219.336 69.8371L218.866 67.6083L220.675 67.2368L221.146 69.4904C221.815 69.4409 222.434 69.4904 223.004 69.639C223.574 69.7876 224.095 70.0352 224.566 70.3572C225.012 70.6791 225.408 71.1249 225.73 71.6449C226.053 72.165 226.276 72.7594 226.424 73.4528L223.178 74.1462C223.004 73.3042 222.682 72.7346 222.236 72.3879C221.765 72.0412 221.245 71.9421 220.625 72.0907C220.278 72.165 220.006 72.2641 219.783 72.4127C219.56 72.5612 219.386 72.7346 219.262 72.9327C219.138 73.1308 219.064 73.3537 219.039 73.5766C219.014 73.7995 219.014 74.0719 219.089 74.3196C219.138 74.5672 219.237 74.7901 219.361 74.9882C219.485 75.1863 219.659 75.3349 219.882 75.4835C220.105 75.6321 220.377 75.7312 220.724 75.8302C221.071 75.9293 221.468 76.0036 221.963 76.0779C222.756 76.2017 223.475 76.3255 224.12 76.4989C224.764 76.6475 225.359 76.8703 225.854 77.1675C226.35 77.4399 226.796 77.8114 227.118 78.2572C227.465 78.7029 227.713 79.2725 227.837 79.9412C227.961 80.5603 227.986 81.1299 227.862 81.65C227.763 82.17 227.54 82.6653 227.217 83.1111C226.895 83.5569 226.499 83.9283 225.978 84.2751C225.483 84.597 224.888 84.8694 224.219 85.0923L224.665 87.1726L222.88 87.544L222.434 85.4885C221.79 85.5628 221.17 85.5381 220.551 85.4638C219.931 85.3895 219.336 85.1914 218.816 84.8942C218.271 84.597 217.825 84.176 217.428 83.6312C217.032 83.0863 216.734 82.3929 216.561 81.5757L219.807 80.8823C219.906 81.3776 220.08 81.7738 220.278 82.071C220.476 82.3682 220.724 82.591 220.997 82.7396C221.27 82.8882 221.567 82.9625 221.889 82.9873C222.211 83.012 222.509 82.9873 222.831 82.913C223.178 82.8387 223.475 82.7396 223.723 82.591C223.971 82.4425 224.169 82.2691 224.318 82.071C224.466 81.8729 224.566 81.65 224.59 81.4271C224.665 81.1299 224.665 80.8823 224.59 80.6346Z" fill="#FFA412"/>
<path d="M260.232 62.8825C266.453 60.7718 269.784 54.0213 267.672 47.8048C265.56 41.5883 258.804 38.2599 252.583 40.3706C246.362 42.4812 243.032 49.2318 245.144 55.4483C247.256 61.6647 254.011 64.9932 260.232 62.8825Z" fill="#E2810E"/>
<path d="M259.261 63.2005C265.482 61.0898 268.813 54.3393 266.701 48.1228C264.589 41.9063 257.834 38.5779 251.613 40.6886C245.392 42.7993 242.061 49.5498 244.173 55.7663C246.285 61.9828 253.041 65.3112 259.261 63.2005Z" fill="#FFB93E"/>
<path d="M258.964 62.3581C256.213 63.2992 253.289 63.1011 250.687 61.8133C248.084 60.5255 246.151 58.3214 245.21 55.5725C244.268 52.8236 244.466 49.9014 245.755 47.301C247.043 44.7007 249.249 42.7691 252 41.828C254.751 40.8869 257.675 41.085 260.277 42.3728C262.88 43.6606 264.813 45.8647 265.754 48.6136C266.696 51.3625 266.498 54.2847 265.209 56.8851C263.92 59.4854 261.715 61.417 258.964 62.3581ZM252.198 42.4471C246.87 44.2549 244.02 50.0499 245.829 55.3744C247.638 60.6989 253.437 63.5468 258.766 61.739C264.094 59.9312 266.944 54.1362 265.135 48.8117C263.326 43.512 257.527 40.6393 252.198 42.4471Z" fill="#FFA412"/>
<path d="M257.898 54.5819C257.848 54.359 257.774 54.1609 257.675 53.9876C257.576 53.8142 257.427 53.6904 257.254 53.5666C257.08 53.4675 256.857 53.3684 256.609 53.2941C256.361 53.2199 256.039 53.1703 255.668 53.1208C255.048 53.0465 254.478 52.9474 253.958 52.8236C253.437 52.6998 252.991 52.5264 252.57 52.3035C252.173 52.0807 251.826 51.8083 251.578 51.4615C251.306 51.1148 251.108 50.6691 251.008 50.1242C250.909 49.6537 250.909 49.2079 250.984 48.7869C251.058 48.3659 251.231 47.9945 251.479 47.623C251.727 47.2763 252.049 46.9543 252.446 46.7067C252.842 46.4343 253.288 46.2114 253.809 46.0628L253.437 44.3045L254.85 44.0073L255.221 45.7904C255.742 45.7408 256.238 45.7904 256.684 45.8894C257.13 46.0133 257.551 46.1866 257.898 46.459C258.245 46.7314 258.567 47.0534 258.815 47.4744C259.063 47.8706 259.236 48.3659 259.36 48.9108L256.808 49.4556C256.659 48.7869 256.411 48.3412 256.064 48.0687C255.692 47.7963 255.271 47.722 254.775 47.8211C254.503 47.8706 254.28 47.9697 254.106 48.0687C253.933 48.1926 253.784 48.3164 253.685 48.465C253.586 48.6136 253.536 48.7869 253.511 48.985C253.487 49.1832 253.511 49.3565 253.536 49.5794C253.586 49.7775 253.66 49.9509 253.735 50.0995C253.834 50.2481 253.958 50.3719 254.131 50.4957C254.305 50.5948 254.528 50.6938 254.8 50.7681C255.073 50.8424 255.395 50.9167 255.767 50.9662C256.386 51.0653 256.956 51.1644 257.477 51.2882C257.997 51.412 258.443 51.5854 258.84 51.8082C259.236 52.0311 259.583 52.3035 259.831 52.675C260.104 53.0217 260.302 53.4675 260.401 53.9876C260.5 54.4581 260.5 54.9286 260.426 55.3496C260.351 55.7706 260.178 56.1421 259.93 56.4888C259.682 56.8355 259.36 57.1327 258.964 57.4051C258.567 57.6775 258.096 57.8757 257.576 58.049L257.923 59.6835L256.51 59.9807L256.163 58.3462C255.668 58.3957 255.172 58.3957 254.676 58.3214C254.181 58.2471 253.735 58.0985 253.313 57.8757C252.892 57.6528 252.52 57.3061 252.223 56.8851C251.901 56.4641 251.678 55.9192 251.554 55.2506L254.106 54.7057C254.181 55.102 254.305 55.3992 254.478 55.6468C254.651 55.8945 254.825 56.0678 255.048 56.1669C255.271 56.2907 255.494 56.3402 255.742 56.365C255.99 56.3898 256.238 56.365 256.485 56.3155C256.758 56.2659 257.006 56.1669 257.204 56.0431C257.402 55.9192 257.551 55.7954 257.675 55.6468C257.799 55.4982 257.873 55.3249 257.898 55.1268C257.948 55.0029 257.948 54.8048 257.898 54.5819Z" fill="#FFA412"/>
<path d="M184.807 248.59C184.807 248.59 181.561 253.172 178.562 253.221C175.588 253.296 171.028 251.092 171.028 251.092C171.028 251.092 168.277 244.999 170.136 242.597C170.136 242.597 171.995 241.78 173.953 243.216C174.3 243.464 174.622 243.786 174.969 244.182C175.439 244.752 175.96 245.074 176.53 245.247C178.661 245.891 181.189 244.38 182.131 245.841C182.676 246.683 183.271 247.327 183.766 247.798C184.386 248.343 184.807 248.59 184.807 248.59Z" fill="#FFEDDC"/>
<path d="M142.379 281.627C142.379 281.627 153.879 253.766 174.597 253.246C174.597 253.246 193.704 255.376 194.77 281.627H142.379Z" fill="#FFEDDC"/>
<path d="M168.921 254.088C168.921 254.088 177.224 255.921 179.776 254.856C179.776 254.856 180.173 251.389 176.678 251.884C174.274 252.206 172.738 251.067 171.821 250.596C170.507 249.928 168.574 252.627 168.921 254.088Z" fill="#DB6A1D"/>
<path d="M176.133 248.863C175.613 249.259 173.977 243.266 173.977 243.266C174.324 243.514 174.646 243.835 174.993 244.232C175.464 244.801 175.984 245.123 176.554 245.297C176.554 245.445 176.654 248.467 176.133 248.863Z" fill="#E5C1A1"/>
<path d="M183.791 247.823C183.667 247.897 179.826 250.2 179.305 250.2C178.785 250.2 182.131 245.891 182.131 245.891C182.701 246.708 183.295 247.352 183.791 247.823Z" fill="#E5C1A1"/>
<path d="M153.606 273.826C153.383 273.652 161.759 261.542 164.039 261.443C166.344 261.344 171.499 264.093 175.241 264.44C178.983 264.787 182.601 263.722 183.32 265.951C184.039 268.155 185.972 276.005 184.782 277.243C183.618 278.531 158.215 277.763 153.606 273.826Z" fill="#F9DDBF"/>
<path d="M610.283 374H1.16365C0.784348 374 0.468262 373.639 0.468262 373.207V372.942C0.468262 372.509 0.784348 372.148 1.16365 372.148H610.304C610.684 372.148 611 372.509 611 372.942V373.207C610.979 373.639 610.663 374 610.283 374Z" fill="#2E3552"/>
<path d="M232.414 367.066V371.821C232.414 372.192 232.266 372.564 232.043 372.836C231.795 373.133 231.448 373.381 231.027 373.529C230.903 373.579 230.754 373.604 230.63 373.629C230.506 373.653 230.382 373.653 230.234 373.653H139.827C138.662 373.653 137.696 372.886 137.646 371.92C137.646 371.895 137.646 371.845 137.646 371.821V367.066C137.646 367.041 137.646 366.992 137.646 366.967C137.696 366.001 138.662 365.233 139.827 365.233H230.209C230.333 365.233 230.457 365.233 230.605 365.258C230.754 365.283 230.878 365.308 231.002 365.357C231.423 365.481 231.77 365.728 232.018 366.05C232.266 366.348 232.414 366.694 232.414 367.066Z" fill="#FFB93E"/>
<path d="M188.029 373.653H139.604C138.563 373.653 137.696 372.886 137.646 371.92C137.646 371.895 137.646 371.845 137.646 371.821V367.066C137.646 367.041 137.646 366.992 137.646 366.967C137.696 366.001 138.563 365.233 139.604 365.233H182.081C182.75 367.71 184.336 371.152 188.029 373.653Z" fill="#FFA412"/>
<path d="M221.386 365.233H220.37V373.653H221.386V365.233Z" fill="#FFA412"/>
<path d="M217.916 365.233H216.9V373.653H217.916V365.233Z" fill="#FFA412"/>
<path d="M213.753 365.233H212.737V373.653H213.753V365.233Z" fill="#FFA412"/>
<path d="M207.359 365.233H206.343V373.653H207.359V365.233Z" fill="#FFA412"/>
<path d="M200.594 365.233H199.578V373.653H200.594V365.233Z" fill="#FFA412"/>
<path d="M190.234 365.233H189.218V373.653H190.234V365.233Z" fill="#FFA412"/>
<path d="M180.544 365.233H179.528V373.653H180.544V365.233Z" fill="#FFA412"/>
<path d="M171.871 365.233H170.854V373.653H171.871V365.233Z" fill="#FFA412"/>
<path d="M224.707 365.233H223.691V373.653H224.707V365.233Z" fill="#FFA412"/>
<path d="M226.888 365.233H225.872V373.653H226.888V365.233Z" fill="#FFA412"/>
<path d="M228.995 365.233H227.979V373.653H228.995V365.233Z" fill="#FFA412"/>
<path d="M230.605 365.258V373.629C230.481 373.653 230.357 373.653 230.209 373.653H229.564V365.233H230.209C230.357 365.233 230.481 365.233 230.605 365.258Z" fill="#FFA412"/>
<path d="M232.042 366.05V372.861C231.795 373.158 231.448 373.406 231.026 373.554V365.357C231.423 365.481 231.795 365.729 232.042 366.05Z" fill="#FFA412"/>
<path d="M222.749 358.647V363.402C222.749 363.773 222.601 364.145 222.378 364.417C222.13 364.715 221.783 364.962 221.362 365.111C221.238 365.16 221.089 365.185 220.965 365.21C220.841 365.235 220.717 365.235 220.569 365.235H130.162C128.997 365.235 128.031 364.467 127.981 363.501C127.981 363.476 127.981 363.427 127.981 363.402V358.647C127.981 358.622 127.981 358.573 127.981 358.548C128.031 357.582 128.997 356.815 130.162 356.815H220.544C220.593 356.815 220.668 356.815 220.717 356.815C220.742 356.815 220.767 356.815 220.792 356.815C220.816 356.815 220.841 356.815 220.866 356.815C220.891 356.815 220.916 356.815 220.916 356.815C221.064 356.839 221.188 356.864 221.312 356.914C221.337 356.914 221.362 356.914 221.362 356.938C221.386 356.938 221.411 356.963 221.411 356.963C221.436 356.988 221.486 356.988 221.51 357.013C221.535 357.013 221.56 357.037 221.585 357.037C221.609 357.037 221.634 357.062 221.634 357.062C221.659 357.087 221.709 357.087 221.733 357.112C221.783 357.137 221.808 357.161 221.857 357.186C221.882 357.211 221.907 357.236 221.932 357.236C221.956 357.26 221.981 357.26 221.981 357.285C222.031 357.335 222.08 357.384 222.13 357.434C222.155 357.458 222.155 357.458 222.18 357.483C222.204 357.508 222.204 357.508 222.229 357.533C222.254 357.557 222.279 357.607 222.303 357.632C222.601 357.904 222.749 358.251 222.749 358.647Z" fill="#FFB93E"/>
<path d="M178.364 365.235H129.939C128.898 365.235 128.031 364.467 127.981 363.501C127.981 363.476 127.981 363.427 127.981 363.402V358.647C127.981 358.622 127.981 358.573 127.981 358.548C128.031 357.582 128.898 356.815 129.939 356.815H172.416C172.441 356.889 172.466 356.963 172.466 357.013C173.184 359.464 174.77 362.783 178.364 365.235Z" fill="#FFA412"/>
<path d="M211.721 356.788H210.705V365.233H211.721V356.788Z" fill="#FFA412"/>
<path d="M208.251 356.788H207.235V365.233H208.251V356.788Z" fill="#FFA412"/>
<path d="M204.088 356.788H203.072V365.233H204.088V356.788Z" fill="#FFA412"/>
<path d="M197.694 356.788H196.678V365.233H197.694V356.788Z" fill="#FFA412"/>
<path d="M190.929 356.788H189.913V365.233H190.929V356.788Z" fill="#FFA412"/>
<path d="M180.569 356.788H179.553V365.233H180.569V356.788Z" fill="#FFA412"/>
<path d="M170.879 356.788H169.863V365.233H170.879V356.788Z" fill="#FFA412"/>
<path d="M162.206 356.788H161.189V365.233H162.206V356.788Z" fill="#FFA412"/>
<path d="M215.042 356.788H214.026V365.233H215.042V356.788Z" fill="#FFA412"/>
<path d="M217.223 356.788H216.207V365.233H217.223V356.788Z" fill="#FFA412"/>
<path d="M219.33 356.788H218.313V365.233H219.33V356.788Z" fill="#FFA412"/>
<path d="M220.94 356.838V365.208C220.816 365.233 220.692 365.233 220.544 365.233H219.899V356.788H220.544C220.692 356.788 220.816 356.813 220.94 356.838Z" fill="#FFA412"/>
<path d="M222.377 357.606V364.416C222.13 364.713 221.783 364.961 221.361 365.109V356.912C221.758 357.061 222.13 357.308 222.377 357.606Z" fill="#FFA412"/>
<path d="M227.409 350.399V355.154C227.409 355.525 227.26 355.897 227.037 356.169C226.789 356.466 226.442 356.714 226.021 356.863C225.897 356.912 225.748 356.937 225.624 356.962C225.5 356.987 225.376 356.987 225.228 356.987H134.846C134.474 356.987 134.152 356.912 133.83 356.788C133.185 356.516 132.739 355.971 132.665 355.327C132.665 355.303 132.665 355.278 132.665 355.253C132.665 355.228 132.665 355.179 132.665 355.154V350.399C132.665 350.374 132.665 350.325 132.665 350.3C132.715 349.334 133.681 348.566 134.846 348.566H225.228C225.352 348.566 225.476 348.566 225.624 348.591C225.773 348.616 225.897 348.641 226.021 348.69C226.442 348.814 226.789 349.062 227.037 349.384C227.285 349.681 227.409 350.028 227.409 350.399Z" fill="#FFB93E"/>
<path d="M183.023 357.013H134.598C134.276 357.013 133.979 356.938 133.706 356.815C133.136 356.542 132.715 355.997 132.665 355.353C132.665 355.329 132.665 355.304 132.665 355.279C132.665 355.254 132.665 355.205 132.665 355.18V350.425C132.665 350.4 132.665 350.351 132.665 350.326C132.715 349.36 133.582 348.593 134.623 348.593H177.1C177.769 351.019 179.281 354.313 182.751 356.815C182.825 356.864 182.924 356.938 183.023 357.013Z" fill="#FFA412"/>
<path d="M216.405 348.566H215.389V356.987H216.405V348.566Z" fill="#FFA412"/>
<path d="M212.935 348.566H211.919V356.987H212.935V348.566Z" fill="#FFA412"/>
<path d="M208.747 348.566H207.731V356.987H208.747V348.566Z" fill="#FFA412"/>
<path d="M202.353 348.566H201.337V356.987H202.353V348.566Z" fill="#FFA412"/>
<path d="M195.613 348.566H194.597V356.987H195.613V348.566Z" fill="#FFA412"/>
<path d="M185.253 348.566H184.237V356.987H185.253V348.566Z" fill="#FFA412"/>
<path d="M175.539 348.566H174.522V356.987H175.539V348.566Z" fill="#FFA412"/>
<path d="M166.865 348.566H165.849V356.987H166.865V348.566Z" fill="#FFA412"/>
<path d="M219.701 348.566H218.685V356.987H219.701V348.566Z" fill="#FFA412"/>
<path d="M221.907 348.566H220.891V356.987H221.907V348.566Z" fill="#FFA412"/>
<path d="M224.013 348.566H222.997V356.987H224.013V348.566Z" fill="#FFA412"/>
<path d="M225.624 348.616V356.987C225.5 357.011 225.376 357.011 225.227 357.011H224.583V348.591H225.227C225.351 348.566 225.475 348.591 225.624 348.616Z" fill="#FFA412"/>
<path d="M227.037 349.384V356.194C226.789 356.491 226.442 356.739 226.021 356.887V348.69C226.442 348.839 226.789 349.086 227.037 349.384Z" fill="#FFA412"/>
<path d="M229.591 341.979V346.734C229.591 347.105 229.442 347.477 229.219 347.749C228.971 348.046 228.624 348.294 228.203 348.443C228.079 348.492 227.93 348.517 227.806 348.542C227.682 348.566 227.559 348.566 227.41 348.566H137.003C135.838 348.566 134.872 347.799 134.822 346.833C134.822 346.808 134.822 346.759 134.822 346.734V341.979C134.822 341.954 134.822 341.905 134.822 341.88C134.872 340.988 135.714 340.245 136.755 340.146C136.83 340.146 136.929 340.122 137.003 340.122H227.385C227.509 340.122 227.633 340.122 227.782 340.146C227.93 340.171 228.054 340.196 228.178 340.245C228.599 340.369 228.946 340.617 229.194 340.939C229.442 341.236 229.591 341.607 229.591 341.979Z" fill="#FFB93E"/>
<path d="M185.204 348.566H136.754C135.713 348.566 134.846 347.799 134.796 346.833C134.796 346.808 134.796 346.759 134.796 346.734V341.979C134.796 341.954 134.796 341.905 134.796 341.88C134.846 340.988 135.589 340.245 136.506 340.146C136.581 340.146 136.655 340.122 136.729 340.122H179.207C179.207 340.122 179.207 340.122 179.207 340.146C179.925 342.648 181.512 346.065 185.204 348.566Z" fill="#FFA412"/>
<path d="M218.562 340.146H217.545V348.591H218.562V340.146Z" fill="#FFA412"/>
<path d="M215.092 340.146H214.076V348.591H215.092V340.146Z" fill="#FFA412"/>
<path d="M210.928 340.146H209.912V348.591H210.928V340.146Z" fill="#FFA412"/>
<path d="M204.535 340.146H203.519V348.591H204.535V340.146Z" fill="#FFA412"/>
<path d="M197.769 340.146H196.753V348.591H197.769V340.146Z" fill="#FFA412"/>
<path d="M187.41 340.146H186.394V348.591H187.41V340.146Z" fill="#FFA412"/>
<path d="M177.695 340.146H176.679V348.591H177.695V340.146Z" fill="#FFA412"/>
<path d="M169.046 340.148H168.03V348.592H169.046V340.148Z" fill="#FFA412"/>
<path d="M221.882 340.146H220.866V348.591H221.882V340.146Z" fill="#FFA412"/>
<path d="M224.063 340.146H223.047V348.591H224.063V340.146Z" fill="#FFA412"/>
<path d="M226.169 340.146H225.153V348.591H226.169V340.146Z" fill="#FFA412"/>
<path d="M227.781 340.171V348.542C227.657 348.566 227.533 348.566 227.384 348.566H226.74V340.122H227.384C227.533 340.146 227.657 340.146 227.781 340.171Z" fill="#FFA412"/>
<path d="M229.193 340.964V347.774C228.945 348.071 228.598 348.319 228.177 348.467V340.27C228.598 340.394 228.945 340.642 229.193 340.964Z" fill="#FFA412"/>
<path d="M222.924 333.559V338.314C222.924 338.685 222.775 339.057 222.552 339.329C222.304 339.626 221.957 339.874 221.536 340.023C221.412 340.072 221.263 340.097 221.14 340.122C221.09 340.122 221.065 340.122 221.016 340.146C220.991 340.146 220.966 340.146 220.941 340.146C220.917 340.146 220.892 340.146 220.867 340.146C220.817 340.146 220.793 340.146 220.743 340.146H130.361C129.196 340.146 128.23 339.379 128.18 338.413C128.18 338.388 128.18 338.339 128.18 338.314V333.559C128.18 333.534 128.18 333.485 128.18 333.46C128.18 333.435 128.18 333.41 128.18 333.386C128.279 332.618 128.948 331.974 129.816 331.776C129.841 331.776 129.865 331.776 129.89 331.751C130.039 331.726 130.212 331.702 130.361 331.702H220.743C220.817 331.702 220.867 331.702 220.941 331.702C220.966 331.702 220.991 331.702 221.04 331.702C221.065 331.702 221.115 331.702 221.14 331.726C221.288 331.751 221.412 331.776 221.536 331.825C221.957 331.949 222.304 332.197 222.552 332.519C222.8 332.816 222.924 333.187 222.924 333.559Z" fill="#FFB93E"/>
<path d="M178.537 340.148H130.112C129.071 340.148 128.204 339.38 128.154 338.414C128.154 338.389 128.154 338.34 128.154 338.315V333.56C128.154 333.535 128.154 333.486 128.154 333.461C128.154 333.436 128.154 333.412 128.154 333.387C128.229 332.594 128.848 331.95 129.666 331.777C129.691 331.777 129.716 331.777 129.74 331.752C129.864 331.728 129.963 331.728 130.087 331.728H172.565C172.565 331.752 172.565 331.777 172.589 331.777C173.308 334.254 174.894 337.646 178.537 340.148Z" fill="#FFA412"/>
<path d="M211.919 331.726H210.903V340.171H211.919V331.726Z" fill="#FFA412"/>
<path d="M208.45 331.726H207.434V340.171H208.45V331.726Z" fill="#FFA412"/>
<path d="M204.286 331.726H203.27V340.171H204.286V331.726Z" fill="#FFA412"/>
<path d="M197.893 331.726H196.876V340.171H197.893V331.726Z" fill="#FFA412"/>
<path d="M191.127 331.726H190.111V340.171H191.127V331.726Z" fill="#FFA412"/>
<path d="M180.768 331.726H179.751V340.171H180.768V331.726Z" fill="#FFA412"/>
<path d="M171.053 331.726H170.037V340.171H171.053V331.726Z" fill="#FFA412"/>
<path d="M162.404 331.728H161.388V340.172H162.404V331.728Z" fill="#FFA412"/>
<path d="M215.24 331.726H214.224V340.171H215.24V331.726Z" fill="#FFA412"/>
<path d="M217.421 331.726H216.405V340.171H217.421V331.726Z" fill="#FFA412"/>
<path d="M219.528 331.726H218.512V340.171H219.528V331.726Z" fill="#FFA412"/>
<path d="M221.139 331.751V340.122C221.015 340.146 220.891 340.146 220.742 340.146H220.098V331.702H220.742C220.866 331.726 221.015 331.726 221.139 331.751Z" fill="#FFA412"/>
<path d="M222.551 332.544V339.354C222.303 339.651 221.956 339.899 221.535 340.047V331.85C221.956 331.974 222.303 332.222 222.551 332.544Z" fill="#FFA412"/>
<path d="M222.75 325.188V329.943C222.75 330.315 222.602 330.686 222.379 330.959C222.131 331.256 221.784 331.503 221.363 331.652C221.264 331.677 221.164 331.702 221.04 331.726C221.016 331.726 220.991 331.726 220.966 331.751C220.842 331.776 220.718 331.776 220.57 331.776H130.163C130.064 331.776 129.965 331.776 129.89 331.751C129.866 331.751 129.816 331.751 129.791 331.726C128.8 331.578 128.056 330.859 128.007 330.017C128.007 329.993 128.007 329.943 128.007 329.918V325.164C128.007 325.139 128.007 325.089 128.007 325.064C128.056 324.099 129.023 323.331 130.188 323.331H220.57C220.619 323.331 220.694 323.331 220.743 323.331C220.768 323.331 220.793 323.331 220.817 323.331C220.842 323.331 220.867 323.331 220.892 323.331C220.917 323.331 220.941 323.331 220.941 323.331C221.09 323.356 221.214 323.38 221.338 323.43C221.363 323.43 221.387 323.43 221.387 323.455C221.412 323.455 221.437 323.48 221.437 323.48C221.487 323.504 221.511 323.504 221.536 323.529C221.586 323.554 221.61 323.554 221.66 323.579C221.685 323.603 221.734 323.603 221.759 323.628C221.809 323.653 221.834 323.678 221.883 323.702C221.908 323.727 221.933 323.752 221.957 323.752C221.982 323.777 222.007 323.777 222.007 323.801C222.057 323.851 222.106 323.901 222.156 323.95C222.18 323.975 222.18 323.975 222.205 324C222.23 324.024 222.23 324.024 222.255 324.049C222.28 324.074 222.304 324.123 222.329 324.148C222.602 324.445 222.75 324.817 222.75 325.188Z" fill="#FFB93E"/>
<path d="M178.364 331.777H129.939C129.889 331.777 129.864 331.777 129.815 331.777C129.765 331.777 129.741 331.777 129.691 331.777C128.749 331.678 128.031 330.935 127.981 330.044C127.981 330.019 127.981 329.969 127.981 329.945V325.19C127.981 325.165 127.981 325.115 127.981 325.091C128.031 324.125 128.898 323.357 129.939 323.357H172.416C172.441 323.431 172.466 323.506 172.466 323.555C173.16 326.007 174.746 329.276 178.265 331.728C178.29 331.752 178.339 331.752 178.364 331.777Z" fill="#FFA412"/>
<path d="M211.721 323.356H210.705V331.801H211.721V323.356Z" fill="#FFA412"/>
<path d="M208.251 323.356H207.235V331.801H208.251V323.356Z" fill="#FFA412"/>
<path d="M204.088 323.356H203.072V331.801H204.088V323.356Z" fill="#FFA412"/>
<path d="M197.694 323.356H196.678V331.801H197.694V323.356Z" fill="#FFA412"/>
<path d="M190.929 323.356H189.913V331.801H190.929V323.356Z" fill="#FFA412"/>
<path d="M180.569 323.356H179.553V331.801H180.569V323.356Z" fill="#FFA412"/>
<path d="M170.879 323.356H169.863V331.801H170.879V323.356Z" fill="#FFA412"/>
<path d="M162.206 323.356H161.189V331.801H162.206V323.356Z" fill="#FFA412"/>
<path d="M215.042 323.356H214.026V331.801H215.042V323.356Z" fill="#FFA412"/>
<path d="M217.223 323.356H216.207V331.801H217.223V323.356Z" fill="#FFA412"/>
<path d="M219.33 323.356H218.313V331.801H219.33V323.356Z" fill="#FFA412"/>
<path d="M220.94 323.381V331.751C220.816 331.776 220.692 331.776 220.544 331.776H219.899V323.356H220.544C220.692 323.356 220.816 323.356 220.94 323.381Z" fill="#FFA412"/>
<path d="M222.377 324.173V330.983C222.13 331.28 221.783 331.528 221.361 331.677V323.479C221.758 323.603 222.13 323.851 222.377 324.173Z" fill="#FFA412"/>
<path d="M227.409 316.966V321.721C227.409 322.093 227.26 322.464 227.037 322.737C226.789 323.034 226.442 323.281 226.021 323.43C225.897 323.48 225.748 323.504 225.624 323.529C225.5 323.554 225.376 323.554 225.228 323.554H134.846C134.474 323.554 134.152 323.48 133.83 323.356C133.185 323.083 132.739 322.539 132.665 321.895C132.665 321.87 132.665 321.845 132.665 321.82C132.665 321.796 132.665 321.746 132.665 321.721V316.966C132.665 316.942 132.665 316.892 132.665 316.867C132.715 315.902 133.681 315.134 134.846 315.134H225.228C225.352 315.134 225.476 315.134 225.624 315.159C225.773 315.183 225.897 315.208 226.021 315.258C226.442 315.381 226.789 315.629 227.037 315.951C227.285 316.223 227.409 316.57 227.409 316.966Z" fill="#FFB93E"/>
<path d="M183.023 323.554H134.598C134.276 323.554 133.979 323.48 133.706 323.356C133.136 323.083 132.715 322.539 132.665 321.895C132.665 321.87 132.665 321.845 132.665 321.82C132.665 321.796 132.665 321.746 132.665 321.721V316.966C132.665 316.942 132.665 316.892 132.665 316.867C132.715 315.902 133.582 315.134 134.623 315.134H177.1C177.769 317.561 179.281 320.854 182.751 323.356C182.825 323.43 182.924 323.48 183.023 323.554Z" fill="#FFA412"/>
<path d="M216.405 315.134H215.389V323.554H216.405V315.134Z" fill="#FFA412"/>
<path d="M212.935 315.134H211.919V323.554H212.935V315.134Z" fill="#FFA412"/>
<path d="M208.747 315.134H207.731V323.554H208.747V315.134Z" fill="#FFA412"/>
<path d="M202.353 315.134H201.337V323.554H202.353V315.134Z" fill="#FFA412"/>
<path d="M195.613 315.134H194.597V323.554H195.613V315.134Z" fill="#FFA412"/>
<path d="M185.253 315.134H184.237V323.554H185.253V315.134Z" fill="#FFA412"/>
<path d="M175.539 315.134H174.522V323.554H175.539V315.134Z" fill="#FFA412"/>
<path d="M166.865 315.134H165.849V323.554H166.865V315.134Z" fill="#FFA412"/>
<path d="M219.701 315.134H218.685V323.554H219.701V315.134Z" fill="#FFA412"/>
<path d="M221.907 315.134H220.891V323.554H221.907V315.134Z" fill="#FFA412"/>
<path d="M224.013 315.134H222.997V323.554H224.013V315.134Z" fill="#FFA412"/>
<path d="M225.624 315.159V323.529C225.5 323.554 225.376 323.554 225.227 323.554H224.583V315.134H225.227C225.351 315.134 225.475 315.134 225.624 315.159Z" fill="#FFA412"/>
<path d="M227.037 315.926V322.737C226.789 323.034 226.442 323.281 226.021 323.43V315.258C226.442 315.381 226.789 315.629 227.037 315.926Z" fill="#FFA412"/>
<path d="M234.795 308.522V313.276C234.795 313.648 234.647 314.019 234.424 314.292C234.176 314.589 233.829 314.837 233.408 314.985C233.284 315.035 233.135 315.059 233.011 315.084C232.887 315.109 232.763 315.109 232.615 315.109H142.233C141.068 315.109 140.101 314.341 140.052 313.375C140.052 313.351 140.052 313.301 140.052 313.276V308.522C140.052 308.497 140.052 308.447 140.052 308.422C140.101 307.531 140.944 306.788 141.985 306.689C142.059 306.689 142.158 306.664 142.233 306.664H232.615C232.738 306.664 232.862 306.664 233.011 306.689C233.16 306.714 233.284 306.738 233.408 306.788C233.829 306.912 234.176 307.159 234.424 307.481C234.672 307.803 234.795 308.15 234.795 308.522Z" fill="#FFB93E"/>
<path d="M190.408 315.135H141.983C140.942 315.135 140.075 314.367 140.025 313.402C140.025 313.377 140.025 313.327 140.025 313.303V308.548C140.025 308.523 140.025 308.473 140.025 308.449C140.075 307.557 140.818 306.814 141.735 306.715C141.81 306.715 141.884 306.69 141.958 306.69H184.436C184.436 306.69 184.436 306.69 184.436 306.715C185.154 309.192 186.741 312.609 190.408 315.135Z" fill="#FFA412"/>
<path d="M223.79 306.689H222.774V315.134H223.79V306.689Z" fill="#FFA412"/>
<path d="M220.321 306.689H219.305V315.134H220.321V306.689Z" fill="#FFA412"/>
<path d="M216.133 306.689H215.117V315.134H216.133V306.689Z" fill="#FFA412"/>
<path d="M209.739 306.689H208.723V315.134H209.739V306.689Z" fill="#FFA412"/>
<path d="M202.998 306.689H201.982V315.134H202.998V306.689Z" fill="#FFA412"/>
<path d="M192.639 306.689H191.623V315.134H192.639V306.689Z" fill="#FFA412"/>
<path d="M182.924 306.689H181.908V315.134H182.924V306.689Z" fill="#FFA412"/>
<path d="M174.275 306.689H173.259V315.134H174.275V306.689Z" fill="#FFA412"/>
<path d="M227.111 306.689H226.095V315.134H227.111V306.689Z" fill="#FFA412"/>
<path d="M229.292 306.689H228.276V315.134H229.292V306.689Z" fill="#FFA412"/>
<path d="M231.399 306.689H230.383V315.134H231.399V306.689Z" fill="#FFA412"/>
<path d="M233.01 306.714V315.084C232.886 315.109 232.762 315.109 232.613 315.109H231.969V306.689H232.613C232.737 306.689 232.886 306.714 233.01 306.714Z" fill="#FFA412"/>
<path d="M234.422 307.506V314.316C234.175 314.614 233.828 314.861 233.406 315.01V306.813C233.828 306.961 234.175 307.184 234.422 307.506Z" fill="#FFA412"/>
<path d="M222.924 300.103V304.858C222.924 305.229 222.775 305.601 222.552 305.873C222.304 306.17 221.957 306.418 221.536 306.566C221.412 306.616 221.263 306.641 221.14 306.665C221.09 306.665 221.065 306.665 221.016 306.69C220.991 306.69 220.941 306.69 220.917 306.69C220.892 306.69 220.892 306.69 220.867 306.69C220.842 306.69 220.793 306.69 220.768 306.69H130.361C129.196 306.69 128.23 305.923 128.18 304.957C128.18 304.932 128.18 304.882 128.18 304.858V300.103C128.18 300.078 128.18 300.028 128.18 300.004C128.23 299.038 129.196 298.27 130.361 298.27H220.743C220.793 298.27 220.817 298.27 220.867 298.27C220.966 298.27 221.04 298.295 221.14 298.295C221.288 298.32 221.412 298.344 221.536 298.394C221.61 298.419 221.66 298.443 221.734 298.468C221.784 298.493 221.809 298.493 221.858 298.518C221.908 298.543 221.933 298.567 221.957 298.567H221.982C222.007 298.592 222.057 298.617 222.081 298.617C222.156 298.666 222.23 298.716 222.304 298.765C222.329 298.79 222.354 298.79 222.354 298.815C222.379 298.815 222.379 298.84 222.403 298.84C222.428 298.864 222.453 298.889 222.478 298.914C222.503 298.939 222.527 298.988 222.577 299.013C222.8 299.385 222.924 299.731 222.924 300.103Z" fill="#FFB93E"/>
<path d="M178.537 306.715H130.112C129.071 306.715 128.204 305.947 128.154 304.981C128.154 304.957 128.154 304.907 128.154 304.882V300.127C128.154 300.103 128.154 300.053 128.154 300.028C128.204 299.063 129.071 298.295 130.112 298.295H172.589C172.614 298.369 172.614 298.419 172.639 298.493C173.358 300.92 174.944 304.238 178.537 306.715C178.537 306.715 178.537 306.69 178.537 306.715Z" fill="#FFA412"/>
<path d="M211.919 298.269H210.903V306.714H211.919V298.269Z" fill="#FFA412"/>
<path d="M208.45 298.269H207.434V306.714H208.45V298.269Z" fill="#FFA412"/>
<path d="M204.286 298.269H203.27V306.714H204.286V298.269Z" fill="#FFA412"/>
<path d="M197.893 298.269H196.876V306.714H197.893V298.269Z" fill="#FFA412"/>
<path d="M191.127 298.269H190.111V306.714H191.127V298.269Z" fill="#FFA412"/>
<path d="M180.768 298.269H179.751V306.714H180.768V298.269Z" fill="#FFA412"/>
<path d="M171.053 298.269H170.037V306.714H171.053V298.269Z" fill="#FFA412"/>
<path d="M162.404 298.27H161.388V306.715H162.404V298.27Z" fill="#FFA412"/>
<path d="M215.24 298.269H214.224V306.714H215.24V298.269Z" fill="#FFA412"/>
<path d="M217.421 298.269H216.405V306.714H217.421V298.269Z" fill="#FFA412"/>
<path d="M219.528 298.269H218.512V306.714H219.528V298.269Z" fill="#FFA412"/>
<path d="M221.139 298.294V306.664C221.015 306.689 220.891 306.689 220.742 306.689H220.098V298.244H220.742C220.866 298.269 221.015 298.294 221.139 298.294Z" fill="#FFA412"/>
<path d="M222.551 299.086V305.896C222.303 306.194 221.956 306.441 221.535 306.59V298.393C221.956 298.541 222.303 298.789 222.551 299.086Z" fill="#FFA412"/>
<path d="M229.591 291.879V296.634C229.591 297.006 229.442 297.377 229.219 297.65C228.971 297.947 228.624 298.195 228.203 298.343C228.079 298.393 227.93 298.417 227.806 298.442C227.683 298.467 227.559 298.467 227.41 298.467H137.003C136.656 298.467 136.309 298.393 136.037 298.269C135.368 297.996 134.897 297.452 134.847 296.808C134.847 296.783 134.847 296.758 134.847 296.733C134.847 296.709 134.847 296.659 134.847 296.634V291.879C134.847 291.855 134.847 291.805 134.847 291.78C134.897 290.889 135.739 290.146 136.78 290.047C136.855 290.047 136.954 290.022 137.028 290.022H227.41C227.534 290.022 227.658 290.022 227.806 290.047C227.955 290.072 228.079 290.096 228.203 290.146C228.624 290.27 228.971 290.517 229.219 290.839C229.442 291.137 229.591 291.483 229.591 291.879Z" fill="#FFB93E"/>
<path d="M185.204 298.467H136.754C136.432 298.467 136.134 298.393 135.886 298.269C135.292 297.996 134.87 297.452 134.821 296.808C134.821 296.783 134.821 296.758 134.821 296.733C134.821 296.709 134.821 296.659 134.821 296.634V291.879C134.821 291.855 134.821 291.805 134.821 291.78C134.87 290.889 135.614 290.146 136.531 290.047C136.605 290.047 136.679 290.022 136.754 290.022H179.231C179.231 290.022 179.231 290.022 179.231 290.047C179.9 292.474 181.412 295.768 184.906 298.269C185.005 298.343 185.105 298.417 185.204 298.467Z" fill="#FFA412"/>
<path d="M218.561 290.047H217.545V298.492H218.561V290.047Z" fill="#FFA412"/>
<path d="M215.091 290.047H214.075V298.492H215.091V290.047Z" fill="#FFA412"/>
<path d="M210.928 290.047H209.912V298.492H210.928V290.047Z" fill="#FFA412"/>
<path d="M204.534 290.047H203.518V298.492H204.534V290.047Z" fill="#FFA412"/>
<path d="M197.768 290.047H196.752V298.492H197.768V290.047Z" fill="#FFA412"/>
<path d="M187.409 290.047H186.393V298.492H187.409V290.047Z" fill="#FFA412"/>
<path d="M177.694 290.047H176.678V298.492H177.694V290.047Z" fill="#FFA412"/>
<path d="M169.045 290.048H168.029V298.493H169.045V290.048Z" fill="#FFA412"/>
<path d="M221.882 290.047H220.866V298.492H221.882V290.047Z" fill="#FFA412"/>
<path d="M224.062 290.047H223.046V298.492H224.062V290.047Z" fill="#FFA412"/>
<path d="M226.169 290.047H225.153V298.492H226.169V290.047Z" fill="#FFA412"/>
<path d="M227.78 290.072V298.442C227.656 298.467 227.532 298.467 227.384 298.467H226.739V290.022H227.384C227.532 290.047 227.656 290.047 227.78 290.072Z" fill="#FFA412"/>
<path d="M229.192 290.839V297.65C228.945 297.947 228.598 298.195 228.176 298.343V290.146C228.598 290.295 228.945 290.542 229.192 290.839Z" fill="#FFA412"/>
<path d="M232.414 283.461V288.216C232.414 288.587 232.266 288.959 232.043 289.231C231.795 289.528 231.448 289.776 231.027 289.925C230.903 289.974 230.754 289.999 230.63 290.024C230.581 290.024 230.556 290.024 230.506 290.048C230.481 290.048 230.457 290.048 230.432 290.048C230.407 290.048 230.382 290.048 230.357 290.048C230.308 290.048 230.283 290.048 230.234 290.048H139.827C138.662 290.048 137.696 289.281 137.646 288.315C137.646 288.29 137.646 288.241 137.646 288.216V283.461C137.646 283.436 137.646 283.387 137.646 283.362C137.696 282.396 138.662 281.628 139.827 281.628H230.209C230.333 281.628 230.457 281.628 230.605 281.653C230.754 281.678 230.878 281.702 231.002 281.752C231.423 281.876 231.77 282.123 232.018 282.445C232.266 282.718 232.414 283.065 232.414 283.461Z" fill="#FFB93E"/>
<path d="M188.029 290.048H139.604C138.563 290.048 137.696 289.281 137.646 288.315C137.646 288.29 137.646 288.241 137.646 288.216V283.461C137.646 283.436 137.646 283.387 137.646 283.362C137.696 282.396 138.563 281.628 139.604 281.628H182.081C182.75 284.105 184.336 287.522 188.029 290.048C188.004 290.048 188.004 290.048 188.029 290.048Z" fill="#FFA412"/>
<path d="M221.386 281.627H220.37V290.072H221.386V281.627Z" fill="#FFA412"/>
<path d="M217.916 281.627H216.9V290.072H217.916V281.627Z" fill="#FFA412"/>
<path d="M213.753 281.627H212.737V290.072H213.753V281.627Z" fill="#FFA412"/>
<path d="M207.359 281.627H206.343V290.072H207.359V281.627Z" fill="#FFA412"/>
<path d="M200.594 281.627H199.578V290.072H200.594V281.627Z" fill="#FFA412"/>
<path d="M190.234 281.627H189.218V290.072H190.234V281.627Z" fill="#FFA412"/>
<path d="M180.544 281.627H179.528V290.072H180.544V281.627Z" fill="#FFA412"/>
<path d="M171.871 281.628H170.854V290.073H171.871V281.628Z" fill="#FFA412"/>
<path d="M224.707 281.627H223.691V290.072H224.707V281.627Z" fill="#FFA412"/>
<path d="M226.888 281.627H225.872V290.072H226.888V281.627Z" fill="#FFA412"/>
<path d="M228.995 281.627H227.979V290.072H228.995V281.627Z" fill="#FFA412"/>
<path d="M230.605 281.652V290.022C230.481 290.047 230.357 290.047 230.209 290.047H229.564V281.602H230.209C230.357 281.627 230.481 281.627 230.605 281.652Z" fill="#FFA412"/>
<path d="M232.042 282.419V289.23C231.795 289.527 231.448 289.774 231.026 289.923V281.726C231.423 281.874 231.795 282.122 232.042 282.419Z" fill="#FFA412"/>
<path d="M132.392 373.678C156.112 373.678 175.34 354.463 175.34 330.761C175.34 307.058 156.112 287.843 132.392 287.843C108.672 287.843 89.4438 307.058 89.4438 330.761C89.4438 354.463 108.672 373.678 132.392 373.678Z" fill="#E2810E"/>
<path d="M128.65 373.678C152.369 373.678 171.598 354.463 171.598 330.761C171.598 307.058 152.369 287.843 128.65 287.843C104.93 287.843 85.7017 307.058 85.7017 330.761C85.7017 354.463 104.93 373.678 128.65 373.678Z" fill="#FFB93E"/>
<path d="M128.65 370.384C118.191 370.384 108.377 366.323 100.967 358.918C93.5823 351.538 89.4932 341.707 89.4932 331.256C89.4932 320.805 93.5575 310.998 100.967 303.593C108.353 296.213 118.191 292.127 128.65 292.127C139.108 292.127 148.922 296.189 156.332 303.593C163.717 310.973 167.806 320.805 167.806 331.256C167.806 341.707 163.742 351.514 156.332 358.918C148.946 366.298 139.108 370.384 128.65 370.384ZM128.65 294.48C108.353 294.48 91.8475 310.973 91.8475 331.256C91.8475 351.538 108.353 368.032 128.65 368.032C148.946 368.032 165.452 351.538 165.452 331.256C165.452 310.973 148.946 294.48 128.65 294.48Z" fill="#FFA412"/>
<path d="M134.052 342.623C134.151 341.781 134.127 341.013 133.953 340.345C133.78 339.676 133.482 339.057 132.987 338.462C132.516 337.868 131.871 337.323 131.054 336.778C130.26 336.234 129.269 335.689 128.08 335.119C126.047 334.129 124.214 333.113 122.578 332.098C120.942 331.082 119.579 329.968 118.464 328.755C117.349 327.541 116.556 326.179 116.035 324.668C115.515 323.158 115.391 321.424 115.614 319.468C115.812 317.759 116.308 316.248 117.076 314.911C117.844 313.574 118.86 312.459 120.1 311.543C121.339 310.627 122.801 309.933 124.437 309.487C126.072 309.017 127.881 308.819 129.864 308.868L130.632 302.429L135.837 303.049L135.068 309.587C136.902 310.057 138.538 310.75 139.95 311.667C141.388 312.583 142.553 313.698 143.47 315.01C144.387 316.323 145.031 317.808 145.427 319.492C145.799 321.177 145.873 323.034 145.65 325.04L136.283 323.925C136.58 321.523 136.258 319.641 135.316 318.329C134.374 317.016 133.036 316.248 131.227 316.025C130.26 315.902 129.393 315.951 128.674 316.124C127.931 316.323 127.311 316.62 126.816 317.041C126.295 317.462 125.899 317.982 125.601 318.601C125.304 319.22 125.13 319.889 125.031 320.632C124.932 321.375 124.982 322.068 125.106 322.687C125.254 323.306 125.552 323.925 126.023 324.495C126.494 325.065 127.138 325.634 127.956 326.179C128.774 326.724 129.814 327.343 131.054 327.962C133.061 329.002 134.87 330.018 136.506 331.058C138.117 332.098 139.48 333.212 140.595 334.426C141.71 335.639 142.503 337.001 143.023 338.512C143.544 340.023 143.668 341.756 143.445 343.688C143.247 345.446 142.726 347.006 141.958 348.344C141.165 349.681 140.149 350.795 138.91 351.687C137.67 352.578 136.208 353.247 134.548 353.668C132.887 354.114 131.078 354.287 129.096 354.238L128.377 360.231L123.222 359.612L123.941 353.643C122.157 353.247 120.471 352.653 118.86 351.86C117.25 351.068 115.862 350.003 114.697 348.715C113.532 347.427 112.665 345.867 112.095 344.059C111.525 342.252 111.376 340.122 111.674 337.719L121.041 338.834C120.868 340.27 120.942 341.484 121.215 342.474C121.512 343.465 121.958 344.307 122.553 344.951C123.148 345.595 123.867 346.09 124.709 346.437C125.527 346.759 126.394 346.982 127.287 347.081C128.303 347.204 129.22 347.18 130.013 347.006C130.806 346.833 131.5 346.561 132.07 346.14C132.64 345.743 133.11 345.248 133.433 344.629C133.73 344.035 133.953 343.366 134.052 342.623Z" fill="#FFA412"/>
<path d="M254.248 111.071C254.199 110.922 254.149 110.774 254.1 110.625C254.025 110.526 253.976 110.402 253.901 110.303C253.728 110.006 253.53 109.733 253.356 109.461C252.117 107.653 250.63 106.068 249.168 104.83C246.937 102.898 244.831 101.71 243.864 101.561C242.031 101.313 234.769 98.2672 234.794 98.9359C234.844 99.6046 235.414 100.991 236.653 101.462C237.892 101.932 242.576 103.864 242.799 105.201C243.047 106.563 232.613 105.276 231.101 104.31C229.738 103.443 222.998 101.313 222.576 101.908C222.527 101.982 222.576 102.106 222.725 102.254C224.212 103.765 235.984 110.551 235.984 110.551C235.984 110.551 241.436 111.764 245.996 113.002C246.467 113.126 246.937 113.25 247.384 113.399C247.582 113.448 247.78 113.522 247.954 113.572C248.177 113.646 248.4 113.696 248.623 113.77C249.515 114.043 250.308 114.315 250.903 114.538L253.331 112.037L254.248 111.071Z" fill="#ECBB8E"/>
<path d="M320.343 114.637L317.94 128.282C307.803 136.826 296.602 145.444 291.323 146.707C280.444 149.357 245.525 115.231 245.525 115.231L247.929 112.408L252.117 107.43L252.191 107.356L253.703 105.573C253.703 105.573 285.276 124.196 288.894 128.604C288.894 128.604 294.693 121.522 300.369 115.776C300.369 115.776 305.697 109.783 309.761 105.845C310.579 105.053 311.347 104.335 312.016 103.765L320.343 114.637Z" fill="#F2D17B"/>
<path d="M291.174 129.644C291.174 129.644 293.603 134.498 292.488 134.944C291.373 135.39 287.63 130.585 287.63 130.585C287.63 130.585 286.515 135.068 285.573 134.226C284.632 133.384 285.573 129.644 285.573 129.644C284.582 127.663 257.966 110.947 252.191 107.356L253.703 105.573C253.703 105.573 285.276 124.196 288.894 128.604C288.894 128.604 294.693 121.522 300.369 115.776C300.369 115.776 305.697 109.783 309.761 105.845L291.174 129.644Z" fill="#F5DBA2"/>
<path d="M318.311 126.252C306.49 135.439 293.231 145.098 290.208 144.801C285.474 144.355 257.867 120.085 247.929 112.408L245.525 115.231C245.525 115.231 280.443 149.357 291.323 146.708C296.602 145.42 307.803 136.802 317.939 128.282L318.311 126.252Z" fill="#DFBD7F"/>
<path d="M281.435 372.762H294.421C297.222 372.762 303.021 367.809 303.021 367.809C303.021 367.809 304.706 371.177 306.193 372.663C307.68 374.149 307.308 358.324 307.308 358.324L299.799 358.027L283.616 367.635L280.518 369.468C280.072 369.716 279.775 370.161 279.676 370.657C279.477 371.746 280.32 372.762 281.435 372.762Z" fill="#A95957"/>
<path d="M283.616 367.611C301.335 373.406 307.308 358.324 307.308 358.324L299.799 358.027L283.616 367.611Z" fill="#ECBB8E"/>
<path d="M326.837 366.793C327.407 369.022 331.942 372.316 334.024 373.703C334.643 374.124 335.461 374.074 336.031 373.604C337.865 372.093 341.657 368.725 342.053 366.793C342.251 365.729 341.409 362.881 340.318 359.934C338.807 355.798 336.849 351.414 336.849 351.414L329.34 351.712C329.34 351.712 327.605 358.274 326.961 362.905C326.713 364.589 326.638 366.026 326.837 366.793Z" fill="#ECBB8E"/>
<path d="M326.837 366.793C327.407 369.022 331.942 372.316 334.024 373.703C334.643 374.124 335.461 374.074 336.031 373.604C337.865 372.093 341.657 368.725 342.053 366.793C342.251 365.728 341.409 362.881 340.318 359.933C339.5 362.955 337.865 366.595 334.643 366.793C331.62 366.967 328.844 364.862 326.961 362.905C326.713 364.589 326.638 366.026 326.837 366.793Z" fill="#A95957"/>
<path d="M307.258 166.148C307.258 166.148 307.159 146.534 306.416 142.993C305.672 139.451 301.509 112.532 310.852 104.681C315.238 100.991 318.633 99.2083 321.013 98.3415C321.558 98.1434 322.078 97.9948 322.524 97.871C323.664 97.5986 324.408 97.549 324.804 97.549C324.804 97.549 324.804 97.549 324.829 97.549C324.903 97.549 324.953 97.549 325.003 97.549C325.027 97.549 325.027 97.549 325.052 97.549C325.077 97.549 325.102 97.549 325.102 97.549H337.567C337.567 97.549 340.095 98.1186 342.896 99.1092C345.869 100.149 353.8 104.805 354.692 106.638C355.336 107.95 354.32 109.535 352.387 119.516C349.091 136.653 341.483 162.78 341.607 167.609C341.607 167.659 322.648 179.05 307.258 166.148Z" fill="#F2D17B"/>
<path d="M309.761 136.826C309.761 136.826 310.207 136.802 311.05 136.752C311.868 136.702 313.057 136.628 314.495 136.529C317.394 136.381 321.359 136.158 325.374 137.247C326.39 137.52 327.431 137.842 328.447 138.114C329.488 138.386 330.529 138.609 331.52 138.758C333.503 139.03 335.312 139.055 336.799 138.931C337.567 138.857 338.261 138.733 338.856 138.56C339.451 138.362 339.922 138.114 340.269 137.842C340.615 137.569 340.814 137.297 340.938 137.123C341.062 136.925 341.111 136.826 341.111 136.826C341.111 136.826 341.037 136.901 340.863 137.049C340.69 137.173 340.442 137.346 340.07 137.495C339.352 137.792 338.212 137.866 336.824 137.668C335.411 137.47 333.751 137.148 331.942 136.678C331.049 136.43 330.132 136.133 329.141 135.811C328.175 135.489 327.134 135.118 325.994 134.82C323.714 134.226 321.409 134.127 319.426 134.325C317.419 134.498 315.684 134.919 314.272 135.316C312.834 135.712 311.719 136.108 310.951 136.405C310.183 136.653 309.761 136.826 309.761 136.826Z" fill="#DFBD7F"/>
<path d="M303.466 77.5885C303.516 77.2913 303.615 76.8703 303.764 76.3503C303.912 75.8302 304.111 75.2359 304.408 74.5672C304.705 73.9233 305.152 73.2051 305.722 72.586C306.316 71.9421 307.01 71.4963 307.63 71.1496C308.274 70.8029 308.894 70.6048 309.414 70.4562C309.637 70.3819 309.835 70.3324 310.034 70.3076C310.257 70.0847 310.405 69.9857 310.405 69.9857C310.405 69.9857 310.356 70.0847 310.281 70.2581C310.43 70.2333 310.554 70.2086 310.653 70.1838C310.951 70.1343 311.124 70.1095 311.124 70.1095C311.124 70.1095 310.728 70.3819 310.034 70.8277C309.885 71.1496 309.711 71.5706 309.513 72.0659C308.993 73.329 308.274 75.0377 307.977 76.9446C307.655 78.8515 307.729 80.7089 307.729 82.0957C307.729 82.7892 307.729 83.3588 307.754 83.755C307.754 84.1512 307.754 84.3741 307.754 84.3741C307.754 84.3741 307.655 84.176 307.506 83.8045C307.357 83.433 307.134 82.913 306.911 82.2443C306.688 81.5757 306.465 80.7584 306.316 79.8174C306.168 78.8763 306.118 77.7866 306.316 76.6722C306.49 75.533 306.911 74.5424 307.357 73.7004C307.803 72.9079 308.274 72.2641 308.72 71.7192C308.051 72.1898 307.308 72.7841 306.663 73.4775C305.672 74.5424 304.904 75.7559 304.334 76.6227C304.036 77.0685 303.813 77.4152 303.64 77.6628C303.466 77.9105 303.367 78.0343 303.367 78.0343C303.367 78.0343 303.417 77.8857 303.466 77.5885Z" fill="#764625"/>
<path d="M343.763 86.3058C344.63 88.3613 345.82 90.2434 347.208 92.0017C350.281 95.865 354.568 99.1588 359.475 99.4807C357.022 98.5644 354.766 97.0538 352.982 95.1221C353.28 95.3202 353.577 95.5183 353.899 95.6669C357.294 97.5738 361.458 98.3168 365.25 97.4748C363.688 95.7907 362.697 93.7105 362.077 91.4816C361.656 89.9215 361.433 88.287 361.383 86.6772C361.26 82.7892 361.978 78.9258 362.523 75.0625C363.391 68.797 364.01 62.3333 363.787 55.9935C363.614 50.9167 361.953 45.4189 358.112 41.9023C356.105 40.0944 353.23 39.2772 350.603 39.822C348.447 40.243 346.489 41.5556 345.225 43.3386C344.928 43.7349 344.68 44.1806 344.457 44.6264C344.135 45.3198 343.961 45.8399 344.383 46.4838C344.804 47.1277 345.399 47.623 345.919 48.1678C347.381 49.7032 348.249 51.6349 348.67 53.7151C348.422 53.9132 348.199 54.1114 348.001 54.3343C346.638 55.6963 345.721 57.4794 344.977 59.2625C342.995 64.0669 342.078 69.2923 341.954 74.4929C341.855 78.5048 342.227 82.591 343.763 86.3058Z" fill="#764625"/>
<path d="M345.225 43.3634C345.448 44.1807 345.795 44.9731 346.266 45.6665C348.596 45.5675 350.727 47.2763 351.768 49.3565C352.809 51.4368 352.982 53.839 353.007 56.1669C353.032 59.6587 352.784 63.1506 352.239 66.6177C351.669 70.2581 350.752 73.8986 350.826 77.5885C350.875 81.2785 352.04 85.1666 354.89 87.5193C354.766 85.34 355.138 83.1359 355.981 81.1299C356.278 85.2904 358.682 89.2033 362.127 91.5312C361.705 89.971 361.482 88.3365 361.433 86.7268C361.334 83.8788 361.705 81.0556 362.102 78.2324C362.251 77.1923 362.424 76.1522 362.548 75.0873C363.415 68.8218 364.035 62.3581 363.812 56.0183C363.638 50.9415 361.978 45.4437 358.137 41.927C356.129 40.1192 353.255 39.302 350.628 39.8468C349.884 39.9954 349.166 40.243 348.496 40.5897C347.208 41.2089 346.068 42.1747 345.225 43.3634Z" fill="#85542D"/>
<path d="M348.496 40.565C350.826 42.1747 353.18 43.7596 354.345 46.2857C354.865 47.4249 355.113 48.6631 355.336 49.8766C355.658 51.5358 355.98 53.2199 356.03 54.9039C356.154 57.8757 355.485 60.7979 355.311 63.7697C355.088 67.2616 355.51 70.803 356.575 74.1462C356.997 72.5613 357.641 71.0258 358.483 69.6142C358.632 72.7842 360.169 75.6321 362.077 78.2324C362.226 77.1923 362.399 76.1522 362.523 75.0873C363.39 68.8218 364.01 62.3581 363.787 56.0183C363.613 50.9415 361.953 45.4437 358.112 41.927C356.104 40.1192 353.23 39.302 350.603 39.8468C349.884 39.9954 349.165 40.243 348.496 40.565Z" fill="#A16941"/>
<path d="M344.928 52.254C347.72 52.254 349.983 49.9921 349.983 47.202C349.983 44.4118 347.72 42.1499 344.928 42.1499C342.136 42.1499 339.872 44.4118 339.872 47.202C339.872 49.9921 342.136 52.254 344.928 52.254Z" fill="#FAEFE6"/>
<path d="M321.013 98.3415L319.674 113.473L326.341 110.08L329.81 105.771C329.81 105.771 329.86 100.273 329.835 97.5738H325.077C325.077 97.5738 325.052 97.5738 325.027 97.5738C325.027 97.5738 325.003 97.5738 324.978 97.5738C324.928 97.5738 324.879 97.5738 324.804 97.5738C324.804 97.5738 324.804 97.5738 324.78 97.5738C324.408 97.5738 323.64 97.5986 322.5 97.8958C322.078 97.9948 321.583 98.1434 321.013 98.3415Z" fill="#FAEFE6"/>
<path d="M326.342 110.08L337.568 97.5738C337.544 95.7165 337.395 95.0231 337.221 90.4168C337.048 85.2904 336.85 80.5108 336.85 80.5108L322.426 86.2067C324.037 89.8224 324.756 93.9334 325.004 97.8463C325.499 106.118 326.342 110.08 326.342 110.08Z" fill="#ECBB8E"/>
<path d="M322.4 86.2329C324.011 89.8486 324.73 93.9595 324.978 97.8724C325.424 98.0705 325.87 98.2439 326.291 98.3925C327.976 98.9868 333.354 94.2072 337.196 90.4429C337.022 85.3166 336.824 80.5369 336.824 80.5369L322.4 86.2329Z" fill="#E39787"/>
<path d="M307.258 69.0942C307.556 70.4315 307.928 71.8431 308.398 73.3042C308.398 73.3042 307.754 80.5356 308.522 82.1453C309.291 83.755 314.148 93.8591 319.253 93.24C323.516 92.7199 333.949 86.4792 337.568 82.7644C338.286 82.0215 338.757 81.3776 338.831 80.907C339.327 78.0343 341.037 65.4042 341.211 64.3393C341.657 61.4666 342.846 39.7725 316.577 45.8151C311.843 46.9048 308.126 50.57 307.035 55.3001C306.242 58.6929 305.994 63.2744 307.258 69.0942Z" fill="#ECBB8E"/>
<path d="M303.144 55.5973C303.144 56.7612 303.466 57.8756 303.838 58.9653C304.582 61.1694 305.598 63.3982 307.432 64.8346C307.209 61.9123 307.357 58.9405 307.828 56.0678C314.098 62.8782 327.183 65.2308 327.728 65.3051C325.25 64.5374 324.507 59.5844 324.507 59.5844C327.505 66.5681 340.615 68.0045 340.615 68.0045C343.763 65.4537 345.944 70.2829 345.944 70.2829C347.009 68.3264 347.877 66.5434 348.57 64.9089C348.744 64.4879 348.917 64.0669 349.066 63.6459C349.487 62.5315 349.785 61.3923 349.958 60.2778C351.693 49.8023 343.862 39.5496 333.775 36.6026H333.751C324.209 33.8537 312.933 36.3797 307.605 41.6299C306.639 42.5957 305.87 43.6358 305.35 44.7502C305.275 44.9236 305.201 45.0969 305.127 45.2703C305.102 45.3198 305.077 45.3694 305.077 45.4189C304.705 46.4095 304.532 47.4248 304.557 48.5145C304.582 49.1832 304.656 49.8023 304.78 50.4214C303.838 51.9568 303.119 53.839 303.144 55.5973Z" fill="#764625"/>
<path d="M305.102 45.2703C305.672 45.5923 306.267 45.8151 306.886 45.9885C308.15 46.3104 309.489 46.3352 310.752 46.6819C312.289 47.0781 313.677 47.9697 314.718 49.1584C316.576 51.2634 317.394 54.3838 319.872 55.6468C321.607 56.5136 323.689 56.2412 325.548 55.7459C327.431 55.2506 329.29 54.5324 331.223 54.5819C334.271 54.681 336.948 56.6869 338.856 59.0644C339.426 59.7826 339.946 60.5255 340.69 61.0456C341.731 61.7638 343.069 61.8876 344.308 61.8133C346.266 61.7142 348.174 61.1694 349.909 60.2779C350.479 56.8603 350.033 53.4675 348.818 50.3471C346.315 43.8835 340.541 38.5838 333.726 36.6026H333.701C327.481 34.7947 320.517 35.2653 314.941 37.2465C311.967 38.3114 309.389 39.7973 307.556 41.6299C306.589 42.5957 305.821 43.6358 305.3 44.7502C305.251 44.9236 305.176 45.097 305.102 45.2703Z" fill="#85542D"/>
<path d="M314.966 37.2217C318.039 39.7477 319.625 44.1559 323.342 45.5427C325.498 46.36 327.902 45.9142 330.207 45.6665C332.487 45.3941 335.04 45.3941 336.849 46.8057C337.791 47.5487 338.435 48.6136 339.327 49.4308C341.211 51.1396 344.036 51.4863 346.539 50.991C347.307 50.8424 348.075 50.6195 348.819 50.3223C346.316 43.8587 340.541 38.559 333.726 36.5778H333.701C327.506 34.7947 320.542 35.2405 314.966 37.2217Z" fill="#A16941"/>
<path d="M308.398 73.3042C308.398 73.3042 307.753 80.5356 308.522 82.1453C309.29 83.755 314.147 93.8591 319.253 93.24C323.515 92.7199 333.949 86.4791 337.567 82.7644C333.131 85.8353 321.285 93.7105 317.815 92.497C313.503 91.0111 308.646 81.5014 308.745 80.5603C308.844 79.6193 309.117 73.4528 309.117 73.4528C309.117 73.4528 308.249 71.4964 307.258 69.1189C307.555 70.4315 307.927 71.8431 308.398 73.3042Z" fill="#F4D8B9"/>
<path d="M337.642 80.5355C340.938 80.2631 343.341 78.3315 344.63 76.697C344.928 76.3255 345.151 75.9788 345.324 75.6569C346.266 73.9481 346.538 68.0293 344.11 66.6672C342.4 65.7014 341.185 67.113 340.591 68.0293C340.343 68.4255 340.194 68.7227 340.194 68.7227L337.642 80.5355Z" fill="#F4D8B9"/>
<path d="M337.642 80.5355C340.938 80.2631 343.341 78.3315 344.63 76.697C344.729 76.5236 344.828 76.375 344.928 76.2264C345.869 74.5176 346.142 68.5988 343.713 67.2368C342.325 66.4443 341.26 67.212 340.591 68.0292C340.343 68.4255 340.194 68.7227 340.194 68.7227L337.642 80.5355Z" fill="#ECBB8E"/>
<path d="M344.878 71.3478C345.002 71.8183 344.928 72.3136 344.779 72.7841C344.11 74.7653 342.127 76.276 340.244 77.6876C340.814 76.7217 341.037 75.6321 340.913 74.5672C340.863 74.1957 340.789 73.8243 340.789 73.4528C340.739 71.9916 344.159 68.5493 344.878 71.3478Z" fill="#E39787"/>
<path d="M339.252 78.2572C339.252 78.2572 339.277 78.2324 339.352 78.2077C339.426 78.1581 339.525 78.1086 339.649 78.0343C339.897 77.8609 340.244 77.5885 340.591 77.1923C340.913 76.7961 341.21 76.2512 341.359 75.6073C341.483 74.9634 341.458 74.2453 341.111 73.5271C341.086 73.428 341.012 73.3537 340.962 73.2547L340.913 73.1804C340.913 73.1556 340.913 73.1804 340.913 73.1804L340.938 73.1308L341.012 73.007C341.062 72.9327 341.111 72.8584 341.136 72.7841C341.309 72.487 341.508 72.2145 341.706 71.9669C341.904 71.7192 342.102 71.4716 342.326 71.2735C342.524 71.0506 342.722 70.8525 342.92 70.7039C343.119 70.5553 343.342 70.4562 343.54 70.4315C343.738 70.4067 343.936 70.4562 344.06 70.5058C344.184 70.5801 344.259 70.6544 344.283 70.7286C344.308 70.8029 344.308 70.8277 344.308 70.8277C344.308 70.8277 344.308 70.8029 344.308 70.7286C344.283 70.6544 344.234 70.5553 344.11 70.4562C343.986 70.3572 343.788 70.2829 343.515 70.2581C343.243 70.2581 342.97 70.3324 342.697 70.481C342.425 70.6296 342.202 70.8029 341.954 71.0011C341.706 71.1992 341.458 71.4221 341.235 71.6945C340.987 71.9421 340.764 72.2393 340.566 72.5365C340.516 72.6108 340.467 72.6851 340.417 72.7594L340.343 72.8832L340.244 73.0566L340.169 73.1804C340.194 73.2299 340.219 73.2547 340.244 73.3042L340.343 73.4776C340.392 73.5519 340.442 73.6261 340.467 73.7004C340.764 74.3196 340.839 74.9635 340.764 75.5578C340.69 76.1274 340.492 76.6475 340.269 77.0685C340.021 77.4895 339.748 77.7867 339.55 77.9848C339.451 78.0838 339.352 78.1581 339.302 78.2077C339.277 78.2324 339.252 78.2572 339.252 78.2572Z" fill="#E07C6F"/>
<path d="M326.34 110.08L334.866 116.742L342.895 99.1588C340.095 98.1682 337.567 97.5738 337.567 97.5738L326.34 110.08Z" fill="#FAEFE6"/>
<path d="M334.42 73.6756C334.469 73.3785 334.569 72.9575 334.717 72.4374C334.866 71.9173 335.064 71.2982 335.362 70.6543C335.659 70.0104 336.08 69.2923 336.675 68.6731C337.27 68.0292 337.964 67.5835 338.583 67.2368C339.228 66.8901 339.847 66.6919 340.368 66.5434C340.591 66.4691 340.789 66.4195 340.987 66.3948C341.21 66.1719 341.359 66.0728 341.359 66.0728C341.359 66.0728 341.309 66.1719 341.235 66.3452C341.384 66.3205 341.508 66.2957 341.607 66.2709C341.904 66.2214 342.078 66.1966 342.078 66.1966C342.078 66.1966 341.656 66.4691 340.987 66.9148C340.838 67.2368 340.665 67.6578 340.467 68.1531C339.946 69.4161 339.228 71.1249 338.93 73.0318C338.608 74.9387 338.682 76.796 338.682 78.1829C338.682 78.8763 338.682 79.4459 338.707 79.8421C338.707 80.2384 338.707 80.4612 338.707 80.4612C338.707 80.4612 338.608 80.2631 338.459 79.8916C338.311 79.5202 338.088 79.0001 337.865 78.3315C337.642 77.6628 337.419 76.8456 337.27 75.9045C337.121 74.9634 337.072 73.8985 337.27 72.7593C337.443 71.6202 337.865 70.6296 338.311 69.7876C338.757 68.9951 339.228 68.3512 339.674 67.8064C339.005 68.2769 338.261 68.8713 337.617 69.5647C336.626 70.6296 335.857 71.843 335.287 72.7098C334.99 73.1556 334.767 73.5023 334.593 73.7499C334.42 73.9976 334.321 74.1214 334.321 74.1214C334.321 74.1214 334.37 73.9728 334.42 73.6756Z" fill="#764625"/>
<path d="M304.879 63.8935C304.879 63.8935 308.225 59.4111 310.108 61.1942C311.967 62.9772 311.124 63.1506 311.124 63.1506L304.879 63.8935Z" fill="#85542D"/>
<path d="M331.421 64.587C331.421 64.587 325.226 57.4794 322.698 60.0054C321.211 61.4913 322.252 62.4819 322.252 62.4819L331.421 64.587Z" fill="#85542D"/>
<path d="M318.038 77.9353C318.584 77.7371 319.104 77.44 319.674 77.5143C319.104 78.802 318.014 79.8669 316.7 80.387C316.601 80.4365 316.502 80.4613 316.378 80.4613C316.254 80.4613 316.13 80.387 316.006 80.3127C315.288 79.8917 314.643 79.3221 314.123 78.6287C314.024 78.5049 313.925 78.3563 313.875 78.1829C313.751 77.6381 314.123 77.7619 314.445 77.8857C314.817 78.0343 315.213 78.1334 315.635 78.1829C316.452 78.3067 317.27 78.2077 318.038 77.9353Z" fill="#E39787"/>
<path d="M316.576 80.065C316.229 79.7678 315.858 79.5202 315.511 79.223C315.089 78.8515 314.693 78.4801 314.346 78.0343C316.13 76.7961 316.13 74.9387 316.031 72.8089C315.982 71.8431 315.734 70.902 315.263 70.06C315.015 69.6142 314.718 69.218 314.371 68.8465C314.197 68.6484 313.999 68.475 313.825 68.3264C313.627 68.1779 313.429 68.0788 313.206 67.9797C313.305 68.1036 313.379 68.2522 313.479 68.376C313.751 68.7227 314.024 69.0199 314.247 69.3913C314.47 69.7628 314.668 70.1343 314.817 70.5305C315.139 71.323 315.312 72.1898 315.362 73.0318C315.387 73.8738 315.263 74.7158 314.965 75.5083C314.619 76.3998 313.999 77.2914 313.181 77.8114C313.181 77.8114 314.395 79.2478 314.519 79.3468C314.842 79.644 315.164 79.9164 315.535 80.1393C315.882 80.3622 316.304 80.6346 316.75 80.6099C316.898 80.6099 317.022 80.5851 317.146 80.486C317.072 80.4365 316.998 80.387 316.948 80.3127C316.923 80.2879 316.898 80.2632 316.874 80.2384C316.75 80.2136 316.675 80.1393 316.576 80.065Z" fill="#E07C6F"/>
<path d="M317.196 87.8908C318.931 88.5099 320.963 88.3365 322.549 87.3954C322.078 88.3118 321.31 88.9309 320.269 89.0052C319.228 89.0795 317.989 88.5594 317.196 87.8908Z" fill="#E07C6F"/>
<path d="M325.771 81.328C325.771 81.328 325.3 83.6312 323.515 85.3647C322.673 86.182 321.558 86.8754 320.046 87.1726C318.534 87.4697 317.245 87.1478 316.18 86.5782C313.9 85.3647 312.661 83.0368 312.661 83.0368C320.442 80.4613 325.548 81.3033 325.771 81.328Z" fill="#DB5B67"/>
<path d="M325.771 81.328C325.771 81.328 325.647 81.7738 324.531 82.3929C323.416 83.0121 315.486 84.0027 314.544 83.8788C313.602 83.7798 312.661 83.0368 312.661 83.0368C320.442 80.4613 325.548 81.3033 325.771 81.328Z" fill="#FAEFE6"/>
<path d="M323.515 85.3647C322.673 86.182 321.557 86.8754 320.046 87.1726C318.534 87.4697 317.245 87.1478 316.18 86.5782C317.567 85.5628 320.764 83.6559 323.515 85.3647Z" fill="#B34B57"/>
<path d="M302.574 70.0104C302.574 73.7004 305.573 76.697 309.266 76.697C312.859 76.697 315.783 73.849 315.932 70.3076C316.998 69.5151 318.46 70.06 319.055 70.3076C319.253 74.171 322.45 77.2666 326.341 77.2666C330.38 77.2666 333.652 73.9976 333.652 69.9609C333.652 69.4409 333.602 68.9208 333.478 68.4255L342.97 66.8653L342.796 65.7509L333.156 67.3111C332.09 64.5622 329.439 62.6305 326.341 62.6305C322.599 62.6305 319.501 65.4537 319.079 69.0941C318.286 68.797 317.022 68.4998 315.858 69.0199C315.387 65.8004 312.611 63.3239 309.266 63.3239C305.573 63.3487 302.574 66.3452 302.574 70.0104ZM320.145 69.9609C320.145 66.5434 322.921 63.7697 326.341 63.7697C329.761 63.7697 332.536 66.5434 332.536 69.9609C332.536 73.3785 329.761 76.1521 326.341 76.1521C322.921 76.1521 320.145 73.3785 320.145 69.9609ZM303.689 70.0104C303.689 66.9396 306.192 64.4631 309.241 64.4631C312.314 64.4631 314.792 66.9644 314.792 70.0104C314.792 73.0813 312.289 75.5578 309.241 75.5578C306.192 75.5826 303.689 73.0813 303.689 70.0104Z" fill="#D46F68"/>
<path d="M296.75 357.903L310.182 358.448L311.446 288.115L311.471 286.803L310.232 267.362L318.732 222.34H321.954L323.887 267.115L324.977 284.202L325.225 293.96L326.712 351.835L339.624 351.315C339.624 351.315 345.398 302.528 345.398 288.982C345.398 287.645 345.349 286.654 345.225 286.084L345.051 284.797L342.003 261.914C342.003 261.914 350.9 218.699 350.454 207.902C350.28 203.469 348.744 195.866 347.009 188.461C344.531 177.862 341.631 167.659 341.631 167.659L307.283 166.173C305.821 170.16 304.334 174.692 302.946 179.249C298.832 192.671 295.486 206.317 295.486 206.317C294.867 208.446 292.265 253.197 291.05 274.42C290.679 281.057 290.431 285.391 290.431 285.391C289.018 291.681 296.75 357.903 296.75 357.903Z" fill="#47475F"/>
<path d="M325.25 293.96L326.737 351.835L339.649 351.315C339.649 351.315 345.424 302.528 345.424 288.982C345.424 287.645 345.374 286.654 345.25 286.084L345.077 284.797C344.234 286.233 343.441 287.496 342.772 288.189C339.501 291.558 335.51 294.232 330.678 294.529C328.819 294.628 327.01 294.405 325.25 293.96Z" fill="#3F3F56"/>
<path d="M296.75 357.903L310.183 358.448L311.446 288.115C304.16 284.301 297.32 279.695 291.026 274.42C290.654 281.057 290.406 285.391 290.406 285.391C289.018 291.681 296.75 357.903 296.75 357.903Z" fill="#3F3F56"/>
<path d="M302.946 179.224C306.168 179.026 309.39 178.629 312.611 178.456C323.119 177.886 334.371 179.719 343.317 185.514C344.482 186.282 345.721 187.347 346.985 188.461C344.507 177.862 341.607 167.659 341.607 167.659L307.258 166.173C305.796 170.135 304.334 174.667 302.946 179.224Z" fill="#3F3F56"/>
<path d="M290.778 191.185L328.844 188.758L317.37 138.089L279.279 140.516L290.778 191.185Z" fill="#FAEFE6"/>
<path d="M277.94 142.473L288.374 188.486L289.44 193.142L327.506 190.715L322.153 167.139L316.031 140.046L277.94 142.473Z" fill="#D46F68"/>
<path d="M288.374 188.486L289.415 193.142L327.481 190.715L322.128 167.114C319.005 175.559 310.48 185.242 288.374 188.486Z" fill="#A95957"/>
<path d="M331 176.057L323.639 177.493L322.103 179.127C320.839 180.143 306.019 183.337 305.523 182.446C305.399 182.198 305.275 181.926 305.176 181.653C305.028 181.232 304.904 180.836 304.805 180.564C304.755 180.366 304.73 180.242 304.73 180.242C304.73 180.242 304.309 179.846 303.888 179.35C303.64 179.053 303.392 178.731 303.218 178.409C303.02 178.063 302.946 177.741 303.045 177.493C303.144 177.245 303.962 176.75 305.077 176.156C307.828 174.694 312.338 172.664 312.016 172.466C311.57 172.193 300.815 174.075 300.815 174.075C300.815 174.075 300.542 173.877 300.319 173.481C300.195 173.258 300.071 172.961 300.021 172.589C299.922 171.599 314.99 166.77 314.99 166.77C312.685 165.779 310.703 163.971 309.538 161.767C309.538 161.742 309.513 161.718 309.513 161.693C309.414 161.495 309.34 161.247 309.464 161.074C309.513 160.975 309.612 160.925 309.711 160.876C310.529 160.479 311.496 160.653 312.314 161.024C313.131 161.396 313.85 161.965 314.618 162.411C316.081 163.303 317.815 163.575 319.501 163.847C322.375 164.318 324.507 169.098 324.507 169.098C324.507 169.098 328.497 168.578 328.72 168.825C329.166 169.296 329.538 169.816 329.81 170.336C330.331 171.277 330.628 172.268 330.801 173.134C330.826 173.258 330.851 173.357 330.851 173.456C331.124 174.942 331 176.057 331 176.057Z" fill="#ECBB8E"/>
<path d="M331 176.054L323.639 177.49L322.103 179.125C320.839 180.14 306.019 183.335 305.523 182.443C305.4 182.196 305.276 181.923 305.177 181.651C305.028 181.23 304.904 180.834 304.805 180.561C304.755 180.363 304.73 180.239 304.73 180.239C304.73 180.239 304.309 179.843 303.888 179.348C303.64 179.05 303.392 178.729 303.219 178.407C303.02 178.06 302.946 177.738 303.045 177.49C303.144 177.243 303.962 176.747 305.077 176.153C305.846 176.673 306.515 177.441 307.258 177.862C308.398 178.506 309.687 178.927 311 179.001C313.156 179.125 315.288 178.456 317.246 177.589C319.228 176.723 321.112 175.658 323.144 174.939C325.622 174.073 328.249 173.726 330.851 173.503C331.124 174.939 331 176.054 331 176.054Z" fill="#E39787"/>
<path d="M303.912 179.323C304.185 179.249 304.458 179.15 304.73 179.05C306.341 178.481 307.729 177.763 308.72 177.193C309.637 176.648 310.182 176.252 310.257 176.203C310.182 176.227 309.513 176.376 308.497 176.648C307.407 176.945 305.944 177.391 304.358 177.961C303.987 178.109 303.615 178.233 303.243 178.382C303.417 178.704 303.664 179.026 303.912 179.323Z" fill="#E07C6F"/>
<path d="M305.201 181.651C307.778 180.784 309.711 179.645 309.835 179.571C309.686 179.571 307.456 179.769 304.829 180.561C304.903 180.809 305.027 181.23 305.201 181.651Z" fill="#E07C6F"/>
<path d="M309.538 161.69C309.736 161.69 309.91 161.69 310.083 161.715C311.595 161.864 312.834 162.854 314.222 163.473C316.105 164.315 318.311 164.489 320.021 165.677C321.458 166.668 322.35 168.278 323.317 169.714C323.614 170.16 323.961 170.63 324.457 170.829C324.878 170.977 325.349 170.928 325.77 170.878C327.109 170.705 328.497 170.457 329.86 170.308C329.562 169.788 329.215 169.268 328.769 168.798C328.546 168.55 324.556 169.07 324.556 169.07C324.556 169.07 322.4 164.291 319.55 163.82C317.865 163.548 316.13 163.275 314.668 162.384C313.9 161.913 313.181 161.368 312.363 160.997C311.545 160.625 310.579 160.477 309.761 160.848C309.662 160.898 309.563 160.947 309.513 161.046C309.364 161.244 309.414 161.492 309.538 161.69Z" fill="#F4D8B9"/>
<path d="M375.41 169.021C373.279 172.958 325.721 179.62 325.721 179.62L325.102 176.995L322.698 166.767L321.806 162.953L353.676 155.474C353.676 155.474 348.719 134.474 347.356 124.196C345.919 113.498 347.356 102.304 347.356 102.304C354.073 103.567 359.649 111.021 364.06 120.506C372.833 139.427 376.823 166.42 375.41 169.021Z" fill="#F2D17B"/>
<path d="M361.978 155.697C360.565 158.124 357.938 157.976 357.938 157.976C357.938 157.976 360.565 164.365 359.549 164.167C358.533 163.969 355.584 159.214 355.584 159.214L322.722 166.767L321.83 162.953L353.7 155.474C353.7 155.474 346.588 123.404 346.811 122.042C347.133 120.085 356.303 154.261 356.303 154.261C356.303 154.261 363.39 153.295 361.978 155.697Z" fill="#DFBD7F"/>
<path d="M375.41 169.021C373.279 172.958 325.721 179.62 325.721 179.62L325.102 176.995C337.369 175.113 369.512 170.011 371.47 168.228C373.304 166.544 368.347 138.436 364.085 120.556C372.833 139.427 376.823 166.42 375.41 169.021Z" fill="#F5DBA2"/>
<path fill-rule="evenodd" clip-rule="evenodd" d="M325.597 66.4443C323.664 66.4443 322.078 67.9054 322.078 69.738C322.078 71.5459 323.639 73.0318 325.597 73.0318C327.53 73.0318 329.116 71.5706 329.116 69.738C329.116 67.9302 327.555 66.4443 325.597 66.4443Z" fill="#A56636"/>
<path fill-rule="evenodd" clip-rule="evenodd" d="M325.226 66.791C323.293 66.791 321.707 68.2769 321.707 70.0847C321.707 71.8926 323.293 73.3785 325.226 73.3785C327.159 73.3785 328.745 71.8926 328.745 70.0847C328.745 68.2521 327.159 66.791 325.226 66.791Z" fill="#FDFDFD"/>
<path fill-rule="evenodd" clip-rule="evenodd" d="M324.879 67.5339C323.565 67.5339 322.524 68.5988 322.524 69.8866C322.524 71.1992 323.59 72.2393 324.879 72.2393C326.167 72.2393 327.233 71.1744 327.233 69.8866C327.258 68.5988 326.192 67.5339 324.879 67.5339Z" fill="#3B2117"/>
<path fill-rule="evenodd" clip-rule="evenodd" d="M322.252 68.8217C321.831 69.1932 321.558 69.639 321.955 68.6236C322.847 66.4195 325.647 66.2709 327.456 67.4349C327.729 67.6082 328.001 67.8064 328.398 67.9302C329.017 68.1283 329.34 67.955 329.538 67.8311C330.38 67.1872 329.934 70.1838 327.332 68.7722C326.019 68.054 324.581 66.7415 322.252 68.8217Z" fill="#3B2117"/>
<path fill-rule="evenodd" clip-rule="evenodd" d="M326.093 68.6979C325.721 68.6979 325.424 68.9951 325.424 69.3666C325.424 69.738 325.721 70.0352 326.093 70.0352C326.465 70.0352 326.762 69.738 326.762 69.3666C326.737 68.9951 326.44 68.6979 326.093 68.6979Z" fill="#FDFDFD"/>
<path fill-rule="evenodd" clip-rule="evenodd" d="M310.43 67.2615C309.142 67.2615 308.125 68.5245 308.125 70.0847C308.125 71.6449 309.166 72.9079 310.43 72.9079C311.719 72.9079 312.735 71.6449 312.735 70.0847C312.76 68.5245 311.719 67.2615 310.43 67.2615Z" fill="#A56636"/>
<path fill-rule="evenodd" clip-rule="evenodd" d="M310.653 67.6578C309.365 67.6578 308.349 68.9208 308.349 70.481C308.349 72.0412 309.389 73.3042 310.653 73.3042C311.917 73.3042 312.958 72.0412 312.958 70.481C312.958 68.9208 311.917 67.6578 310.653 67.6578Z" fill="#FDFDFD"/>
<path fill-rule="evenodd" clip-rule="evenodd" d="M310.926 68.4255C310.083 68.4255 309.389 69.3418 309.389 70.4562C309.389 71.5706 310.083 72.4869 310.926 72.4869C311.768 72.4869 312.462 71.5706 312.462 70.4562C312.462 69.317 311.768 68.4255 310.926 68.4255Z" fill="#3B2117"/>
<path fill-rule="evenodd" clip-rule="evenodd" d="M311.744 69.317C311.496 69.317 311.273 69.5647 311.273 69.8866C311.273 70.2086 311.471 70.4562 311.744 70.4562C311.992 70.4562 312.215 70.2086 312.215 69.8866C312.215 69.5647 311.992 69.317 311.744 69.317Z" fill="#FDFDFD"/>
<path fill-rule="evenodd" clip-rule="evenodd" d="M312.586 69.4904C312.859 69.8123 313.057 70.1838 312.785 69.317C312.19 67.4349 310.331 67.212 309.142 68.2274C308.968 68.376 308.745 68.6236 308.497 68.7227C308.076 68.896 307.878 68.7474 307.754 68.6236C307.184 68.0788 307.481 70.6296 309.216 69.4161C310.083 68.8217 311.05 67.7073 312.586 69.4904Z" fill="#3B2117"/>
</svg>
